# xmcd
#
# Track frame offsets:
#	150
#	17956
#	38681
#	54948
#	71461
#	88211
#	102591
#	118153
#	132884
#	148693
#	163024
#	179108
#
# Disc length: 2626 seconds
#
# Revision: 0
# Processed by: cddbd v1.5.2PL0 Copyright (c) Steve Scherf et al.
# Submitted via: audiograbber 1.83.01
#
DISCID=af0a400c
DTITLE=BANDA STEEL - ESCUTA MINHA VOZ
DYEAR=1900
DGENRE=
TTITLE0=Em que planeta andei
TTITLE1=Por esse amor
TTITLE2=É tarde para voltar
TTITLE3=Dimensões
TTITLE4=Como um beijo
TTITLE5=Seu olhar me balança
TTITLE6=O amor está no ar
TTITLE7=Escuta minha voz
TTITLE8=Não tem jeito
TTITLE9=Tira de min essa dor
TTITLE10=Chove não molha
TTITLE11=Pout pourri
EXTD=kiroiva@hotmail.com
EXTT0=
EXTT1=
EXTT2=
EXTT3=
EXTT4=
EXTT5=
EXTT6=
EXTT7=
EXTT8=
EXTT9=
EXTT10=
EXTT11=
PLAYORDER=
